<svg fill="none" height="32" viewBox="0 0 32 32" width="32" xmlns="http://www.w3.org/2000/svg" xmlns:xlink="http://www.w3.org/1999/xlink"><clipPath id="a"><path d="m6 6h20v20h-20z"/></clipPath><rect fill="#2d073a" height="32" rx="16" width="32"/><g clip-path="url(#a)" stroke="#fcf9ff" stroke-miterlimit="10" stroke-width="1.5"><path d="m10.4332 7.25h11.1334c.4221 0 .8269.16769 1.1254.46619.2985.29849.4662.70334.4662 1.12548v9.54163h-14.31665v-9.54163c0-.42214.1677-.82699.46619-1.12548.2985-.2985.70336-.46619 1.12546-.46619z"/><path d="m23.1583 18.3833h-14.31663l-1.525 4.5667c-.0431.1404-.06555.2864-.06667.4333.00219.3618.14688.7081.4027.964.25583.2558.60218.4005.96397.4027h14.76663c.3618-.0022.7082-.1469.964-.4027.2558-.2559.4005-.6022.4027-.964-.0011-.1469-.0236-.2929-.0667-.4333z"/><path d="m14.4084 22.3667h3.1834"/></g></svg>