<svg fill="none" height="25" viewBox="0 0 25 25" width="25" xmlns="http://www.w3.org/2000/svg"><path d="m25 12.5c0-6.9043-5.5957-12.5-12.5-12.5s-12.5 5.5957-12.5 12.5c0 5.8594 4.03809 10.7812 9.48242 12.1338v-8.3154h-2.57812v-3.8184h2.57812v-1.6455c0-4.25294 1.92388-6.22559 6.10348-6.22559.7911 0 2.1582.15625 2.7198.3125v3.45703c-.293-.0293-.8057-.04883-1.4453-.04883-2.0508 0-2.8418.77637-2.8418 2.79299v1.3574h4.082l-.7031 3.8184h-3.3838v8.5888c6.1914-.747 10.9863-6.0156 10.9863-12.4072z" fill="#fcf9ff"/></svg>