<svg fill="none" height="26" viewBox="0 0 25 26" width="25" xmlns="http://www.w3.org/2000/svg"><path d="m12.2554 6.71074c-3.4781 0-6.28357 2.80547-6.28357 6.28356 0 3.4782 2.80547 6.2836 6.28357 6.2836s6.2836-2.8054 6.2836-6.2836c0-3.47809-2.8055-6.28356-6.2836-6.28356zm0 10.36876c-2.2476 0-4.08514-1.832-4.08514-4.0852 0-2.2531 1.83204-4.08512 4.08514-4.08512s4.0852 1.83202 4.0852 4.08512c0 2.2532-1.8375 4.0852-4.0852 4.0852zm8.0063-10.62579c0 .81484-.6563 1.46563-1.4657 1.46563-.8148 0-1.4656-.65625-1.4656-1.46563 0-.80937.6563-1.46562 1.4656-1.46562.8094 0 1.4657.65625 1.4657 1.46562zm4.1617 1.4875c-.093-1.96328-.5414-3.70234-1.9797-5.13516-1.4328-1.43281-3.1719-1.881245-5.1352-1.979683-2.0234-.114844-8.08824-.114844-10.11167 0-1.95782.092969-3.69688.541403-5.13516 1.974223-1.438281 1.43281-1.88125 3.17187-1.9796876 5.13515-.1148437 2.02344-.1148437 8.08826 0 10.11176.0929686 1.9632.5414066 3.7023 1.9796876 5.1351 1.43828 1.4328 3.17187 1.8813 5.13516 1.9797 2.02343.1148 8.08827.1148 10.11167 0 1.9633-.093 3.7024-.5414 5.1352-1.9797 1.4328-1.4328 1.8813-3.1719 1.9797-5.1351.1148-2.0235.1148-8.08285 0-10.10629zm-2.6141 12.27739c-.4265 1.0718-1.2523 1.8976-2.3297 2.3296-1.6132.6399-5.4414.4922-7.2242.4922s-5.61639.1422-7.2242-.4922c-1.07187-.4265-1.89765-1.2523-2.32969-2.3296-.63984-1.6133-.49218-5.4415-.49218-7.2243s-.14219-5.61637.49218-7.22418c.42657-1.07188 1.25235-1.89766 2.32969-2.32969 1.61328-.63984 5.4414-.49219 7.2242-.49219s5.6164-.14219 7.2242.49219c1.0719.42656 1.8977 1.25234 2.3297 2.32969.6399 1.61328.4922 5.44138.4922 7.22418s.1477 5.6164-.4922 7.2243z" fill="#fcf9ff"/></svg>