<svg fill="none" height="23" viewBox="0 0 22 23" width="22" xmlns="http://www.w3.org/2000/svg"><path d="m20.3125.5625h-18.75488c-.859378 0-1.55762.70801-1.55762 1.57715v18.72075c0 .8691.698242 1.5771 1.55762 1.5771h18.75488c.8594 0 1.5625-.708 1.5625-1.5771v-18.72075c0-.86914-.7031-1.57715-1.5625-1.57715zm-13.70117 18.75h-3.24219v-10.43945h3.24707v10.43945zm-1.6211-11.86523c-1.04004 0-1.87988-.84473-1.87988-1.87989 0-1.03515.83984-1.87988 1.87988-1.87988 1.03516 0 1.87989.84473 1.87989 1.87988 0 1.04004-.83985 1.87989-1.87989 1.87989zm13.77437 11.86523h-3.2421v-5.0781c0-1.211-.0245-2.7686-1.6846-2.7686-1.6895 0-1.9483 1.3184-1.9483 2.6807v5.166h-3.24214v-10.43945h3.11034v1.42575h.044c.4345-.82029 1.4941-1.68454 3.0712-1.68454 3.2813 0 3.8916 2.16304 3.8916 4.97554z" fill="#fcf9ff"/></svg>