<svg fill="none" height="29" viewBox="0 0 30 29" width="30" xmlns="http://www.w3.org/2000/svg"><path d="m27.1875 6.9375v13.125c0 .7459-.2963 1.4613-.8238 1.9887-.5274.5275-1.2428.8238-1.9887.8238h-18.75c-.74592 0-1.46129-.2963-1.98874-.8238-.52744-.5274-.82376-1.2428-.82376-1.9887v-13.125m24.375 0c0-.74592-.2963-1.46129-.8238-1.98874-.5274-.52744-1.2428-.82376-1.9887-.82376h-18.75c-.74592 0-1.46129.29632-1.98874.82376-.52744.52745-.82376 1.24282-.82376 1.98874m24.375 0v.30375c.0001.48018-.1228.95238-.357 1.37162-.2341.41924-.5717.77155-.9805 1.02338l-9.375 5.76875c-.4435.2732-.9541.4178-1.475.4178s-1.0315-.1446-1.475-.4178l-9.375-5.7675c-.40885-.25183-.74641-.60414-.98054-1.02338-.23412-.41924-.35701-.89144-.35696-1.37162v-.305" stroke="#242424" stroke-linecap="round" stroke-linejoin="round" stroke-width="3"/></svg>