<svg fill="none" height="32" viewBox="0 0 32 32" width="32" xmlns="http://www.w3.org/2000/svg" xmlns:xlink="http://www.w3.org/1999/xlink"><clipPath id="a"><path d="m6 6h20v20h-20z"/></clipPath><rect fill="#2d073a" height="32" rx="16" width="32"/><g clip-path="url(#a)" stroke="#fff" stroke-miterlimit="10" stroke-width="1.5"><path d="m16.9249 19.7915-4.7166-4.7167 6.0583-6.05831c.7923-.79258 1.7896-1.34885 2.8803-1.60643s2.2315-.20629 3.2947.1481c.3544 1.06316.4057 2.20402.1481 3.29464-.2576 1.0907-.8139 2.0881-1.6064 2.8804z"/><path d="m18.3749 14.3336c.4326 0 .7833-.3396.7833-.7584s-.3507-.7583-.7833-.7583-.7833.3395-.7833.7583.3507.7584.7833.7584z"/><path d="m13.975 20.3832-2.3583-2.3584 1.1833-2.3583 3.5334 3.5333z"/><path d="m19.2834 17.4375c.3096.3095.5551.677.7226 1.0814s.2538.8379.2538 1.2756c0 .4378-.0863.8712-.2538 1.2756-.1675.4045-.413.7719-.7226 1.0814l-1.7677 1.7678c-.6251-.6251-.9763-1.473-.9763-2.357 0-.8841.3512-1.7319.9763-2.357z"/><path d="m8.08438 14.4945 1.76777-1.7677c.62515-.6251 1.47295-.9763 2.35705-.9763.884 0 1.7319.3512 2.357.9763l-1.7678 1.7677c-.6251.6252-1.4729.9764-2.357.9764-.88405 0-1.7319-.3512-2.35702-.9764z"/><path d="m9.10841 19.5581c.21727-.2508.48232-.4559.77969-.6033.2974-.1474.6211-.234.9523-.255.3312-.0209.6633.0243.9769.133.3135.1087.6023.2788.8494.5003.2215.2472.3916.5359.5004.8495.1087.3136.1539.6456.133.9769-.021.3312-.1077.6549-.255.9523-.1474.2973-.3525.5624-.6034.7797-1.9 1.9-5.19163 1.8583-5.19163 1.8583s-.04166-3.2917 1.85834-5.1917z"/></g></svg>