<svg width="66" height="66" viewBox="0 0 66 66" fill="none" xmlns="http://www.w3.org/2000/svg">
<path d="M33.1538 16.475C28.948 16.475 25.5385 19.7993 25.5385 23.9V33.8C25.5385 37.9007 28.948 41.225 33.1538 41.225C37.3597 41.225 40.7692 37.9007 40.7692 33.8V23.9C40.7692 19.7993 37.3597 16.475 33.1538 16.475ZM33.1538 14C38.7617 14 43.3077 18.4324 43.3077 23.9V33.8C43.3077 39.2676 38.7617 43.7 33.1538 43.7C27.546 43.7 23 39.2676 23 33.8V23.9C23 18.4324 27.546 14 33.1538 14Z"/>
<path d="M31.8846 21.425C31.8846 20.7415 32.4529 20.1875 33.1539 20.1875C33.8549 20.1875 34.4231 20.7415 34.4231 21.425V28.025C34.4231 28.7085 33.8549 29.2625 33.1539 29.2625C32.4529 29.2625 31.8846 28.7085 31.8846 28.025V21.425Z"/>
<g class="down-arrow">
    <path d="M33.7834 52.5497C33.1748 52.8887 32.3995 52.6826 32.0517 52.0892C31.7039 51.4958 31.9154 50.7398 32.524 50.4008L38.4471 47.1008C39.0557 46.7617 39.831 46.9678 40.1788 47.5612C40.5266 48.1546 40.3151 48.9106 39.7065 49.2497L33.7834 52.5497Z"/>
    <path d="M33.7837 50.4008C34.3923 50.7398 34.6037 51.4958 34.256 52.0892C33.9082 52.6826 33.1329 52.8887 32.5242 52.5497L26.6012 49.2497C25.9925 48.9106 25.7811 48.1546 26.1289 47.5612C26.4767 46.9678 27.252 46.7617 27.8606 47.1008L33.7837 50.4008Z" />
</g>
</svg>
