<svg fill="none" height="32" viewBox="0 0 32 32" width="32" xmlns="http://www.w3.org/2000/svg"><rect fill="#2d073a" height="32" rx="16" width="32"/><g stroke="#fff" stroke-miterlimit="10" stroke-width="1.5"><path d="m7.25 18.4082h1.59167l4.16663 2.3917c.9118.5176 1.9432.7877 2.9917.7833"/><path d="m21.9666 19.0915 1.1916-.6833h1.5917"/><path d="m16.0001 21.5833c1.0428.0015 2.0681-.2685 2.975-.7833l1.6666-.975-3.0666-4.6-2.2084.55c-.2157.0505-.4367.0756-.6583.075-.4192 0-.8328-.097-1.2083-.2834-.2137-.1052-.3925-.2696-.5153-.4736s-.1844-.439-.1774-.677c.0071-.238.0824-.469.217-.6654s.3229-.3499.5423-.4423l4.2334-1.8083c.4786-.2033 1.0002-.2846 1.518-.2366s1.0155.2238 1.4486.5116l1.6 1.0583h2.3834"/><path d="m7.25 12.8333h2.38333l1.59997-1.0583c.4331-.2878.9309-.4636 1.4487-.5116s1.0394.0333 1.518.2366l1.8.775"/><path d="m24.75 11.25v8.75"/><path d="m7.25 11.25v8.75"/></g></svg>