<svg fill="none" height="161" viewBox="0 0 292 161" width="292" xmlns="http://www.w3.org/2000/svg" xmlns:xlink="http://www.w3.org/1999/xlink"><clipPath id="a"><path d="m0 0h292v161h-292z"/></clipPath><g clip-path="url(#a)" fill="#fcf9ff"><path d="m31.831 94.5018v-74.1862c0-.1742-.0229-.2475-.0229-.2475-.084-.0631-.2418-.1946-.3817-.2652-.4632-.1919-1.135-.4116-1.8526-.5934-.6794-.1694-1.3817-.2754-2.0739-.3208-.7608-.0455-1.285-.0733-1.57-.0733h-5.1199v76.6158h6.6086c.5878 0 1.2061-.0809 1.8422-.24.1934-.0454.3894-.0706.5878-.0706.6083 0 1.135-.0934 1.5625-.2752.056-.0303.2138-.1415.3436-.2703.0253-.0252.0507-.0506.0788-.0758zm20.8942-37.4681c.0508 12.4557.0788 24.9644.0788 37.5186 0 3.5913-.8803 6.6877-2.6159 9.2107-1.6667 2.419-3.8577 4.417-6.5092 5.935-2.5549 1.467-5.4558 2.553-8.6162 3.225-3.0817.654-6.153.985-9.1328.985h-25.93014414v-113.571574h25.93014414c2.9822 0 6.0282.333361 9.0616.989984 3.0994.66925 5.9697 1.75523 8.5321 3.22252 2.6517 1.52035 4.8399 3.51802 6.5068 5.93487 1.7354 2.523 2.6158 5.5688 2.6158 9.0539 0 12.5518.0229 25.0478.079 37.496z"/><path d="m113.502.404297h-18.6165v113.505703h18.6165z"/><path d="m94.8861.40332h-19.5531l-23.0012 113.50568h19.5506z"/><path d="m291.704.404297h-18.618v113.505703h18.618z"/><path d="m273.085.40332h-19.553l-23.001 113.50568h19.551z"/><path d="m148.997 37.7911v-17.4208c0-.3055-.033-.3233-.176-.4015-.056-.0304-.107-.0631-.157-.0985-.395-.2601-.886-.4647-1.454-.6062-.636-.1818-1.193-.2827-1.717-.3232-.596-.0454-1.084-.0707-1.453-.0707h-6.056v32.397h6.056c1.132 0 1.796-.351 2.305-1.2199.835-1.4295 1.443-2.7906 1.807-4.0458.359-1.5204.6-3.1164.695-4.6268.101-1.6516.152-2.8233.152-3.5836zm20.965 0c0 3.6848-.417 7.3694-1.236 10.9506-.794 3.4776-2.135 6.7001-3.99 9.5968 3.336 3.1366 5.071 7.233 5.071 12.1147 0 6.8367.026 13.6756.079 20.5147.058 7.6497.084 15.2941.076 22.9411h-20.958v-42.6803c0-.1163-.015-.1667-.015-.1667-.132-.1617-.234-.2576-.29-.3006-.522-.2904-1.048-.5101-1.562-.6591-.504-.1415-.995-.2122-1.446-.2122h-7.702v44.0189h-20.803v-113.505191h26.856c3.095 0 6.123.333366 9.008.995041 2.955.67684 5.678 1.77037 8.09 3.2503 2.504 1.54056 4.557 3.57863 6.11 6.06375 1.575 2.528 2.432 5.5409 2.552 8.9528.206 2.98.29 6.0839.234 9.1448-.053 2.9952-.076 5.9879-.076 8.9806z"/><path d="m245.159.40332s-.454 2.27041-.641 2.98766l-17.474 66.82442v43.6936h-20.801v-43.691l-17.632-66.82196c-.186-.71473-.637-2.99272-.637-2.99272h2.965 16.771 2.871l6.248 35.21028 5.722-35.21028h2.71 16.928"/><path d="m183.137 20.2013h-9.237v-20.2013h9.237z"/><path d="m3.82958 150.458c-1.45809-.513-2.66425-1.202-3.615957-2.068l1.348667-2.231c.76086.758 1.76345 1.379 3.0027 1.864 1.23926.488 2.44543.733 3.61597.733 1.33595 0 2.41744-.306 3.24954-.915.8295-.606 1.2443-1.371 1.2443-2.29 0-.73-.2239-1.311-.6718-1.743-.4504-.432-1.0102-.765-1.6769-.995-.66669-.23-1.60059-.492-2.79913-.79-1.44282-.323-2.61336-.654-3.51417-.993-.89827-.338-1.66167-.871-2.28765-1.603-.62598-.728-.938978-1.715-.938978-2.96 0-1.73.666698-3.122 2.002648-4.177 1.33339-1.054 3.08921-1.582 5.26999-1.582 1.38939 0 2.71009.223 3.96209.67 1.2545.447 2.2622 1.076 3.0256 1.886l-1.3894 2.23c-.654-.702-1.5395-1.262-2.6567-1.682-1.11706-.419-2.18073-.628-3.18587-.628-1.22654 0-2.20876.275-2.94418.83-.73541.553-1.10184 1.303-1.10184 2.251 0 .621.21122 1.136.63362 1.54.42241.407.95171.717 1.59297.935.6387.214 1.51916.472 2.63626.77 1.47084.351 2.68204.709 3.63634 1.073.9542.366 1.7634.94 2.4301 1.725.6667.783 1.0026 1.839 1.0026 3.162 0 1.109-.3155 2.096-.9415 2.96-.626.866-1.5039 1.548-2.6337 2.048-1.1324.5-2.43271.75-3.90353.75-1.47081 0-2.93399-.258-4.39209-.77z"/><path d="m24.6292 149.14c-1.2672-1.258-1.9008-2.993-1.9008-5.211v-10.059h-3.9622v-2.757h3.9622v-5.433h2.9415v5.433h5.5982v2.757h-5.5982v9.938c0 1.404.4021 2.506 1.2062 3.304.804.798 1.8321 1.197 3.0866 1.197.4607 0 .8983-.069 1.3054-.202l.2061 2.593c-.5725.217-1.201.326-1.8804.326-2.0434 0-3.6973-.629-4.9646-1.886z"/><path d="m37.0293 131.114h2.9824v3.124c.5445-1.056 1.3283-1.907 2.3486-2.556 1.023-.649 2.0511-.974 3.0868-.974.7607 0 1.4554.095 2.0841.285l-.163 2.798c-.6004-.242-1.3079-.366-2.1247-.366-.9008 0-1.8398.346-2.8195 1.035-.9823.69-1.7863 1.617-2.4123 2.778v13.585h-2.9824z"/><path d="m53.906 144.76c.6541 1.15 1.5522 2.049 2.6973 2.698 1.1426.649 2.4099.972 3.7993.972 1.3079 0 2.5598-.338 3.7584-1.013 1.1985-.677 2.0993-1.528 2.6974-2.556v-7.745c-.5725-1.081-1.458-1.96-2.6566-2.637-1.1985-.674-2.4658-1.013-3.7992-1.013-1.3894 0-2.6567.324-3.7993.973-1.1451.649-2.0432 1.543-2.6973 2.677-.654 1.136-.9796 2.407-.9796 3.811 0 1.406.3256 2.684.9796 3.833zm15.9347 6.064h-2.9823v-3.084c-.5725 1.001-1.5191 1.834-2.8398 2.493-1.3207.664-2.6898.995-4.1071.995-1.8526 0-3.5345-.452-5.0461-1.359-1.5115-.904-2.7024-2.141-3.5753-3.709-.8703-1.569-1.3079-3.311-1.3079-5.233 0-1.892.4376-3.622 1.3079-5.19.8729-1.566 2.0638-2.798 3.5753-3.69 1.5116-.891 3.1935-1.339 5.0461-1.339 1.4453 0 2.8271.331 4.1478.996 1.3206.661 2.2545 1.492 2.7991 2.492v-3.081h2.9823z"/><path d="m80.5663 149.14c-1.2673-1.258-1.9009-2.993-1.9009-5.211v-10.059h-3.962v-2.757h3.962v-5.433h2.9418v5.433h5.5982v2.757h-5.5982v9.938c0 1.404.4019 2.506 1.2061 3.304.8041.798 1.8322 1.197 3.0866 1.197.4606 0 .8984-.069 1.3055-.202l.2061 2.593c-.5726.217-1.201.326-1.8805.326-2.0434 0-3.6975-.629-4.9647-1.886z"/><path d="m106.983 138.982c-.163-1.622-.853-2.968-2.064-4.036s-2.69-1.601-4.433-1.601c-1.7707 0-3.2823.512-4.5367 1.54-1.252 1.028-2.0562 2.392-2.4099 4.097zm-11.4816 10.907c-1.5522-.891-2.7788-2.129-3.6771-3.71-.9009-1.581-1.3486-3.346-1.3486-5.293 0-1.864.4477-3.574 1.3486-5.129.8983-1.554 2.1172-2.784 3.6566-3.69 1.5371-.907 3.2344-1.359 5.0871-1.359 1.771 0 3.377.412 4.822 1.238 1.443.825 2.58 1.954 3.412 3.386.83 1.432 1.245 3.028 1.245 4.786 0 .46-.026.904-.082 1.336h-16.5477c.1093 2.109.8372 3.821 2.1858 5.132 1.3487 1.311 3.0435 1.967 5.0869 1.967 1.417 0 2.702-.29 3.863-.874 1.157-.58 2.02-1.371 2.593-2.371l2.371 1.46c-.763 1.379-1.936 2.467-3.514 3.265-1.58.796-3.379 1.195-5.395 1.195-1.8521 0-3.5545-.445-5.1066-1.339z"/><path d="m118.178 144.558c.654 1.121 1.552 2.008 2.697 2.657 1.143.649 2.41.972 3.8.972 1.308 0 2.56-.323 3.758-.972 1.199-.649 2.099-1.488 2.698-2.516v-7.665c-.573-1.053-1.459-1.919-2.657-2.596-1.199-.674-2.466-1.013-3.799-1.013-1.39 0-2.657.319-3.8.953-1.145.636-2.043 1.515-2.697 2.636-.654 1.122-.979 2.387-.979 3.793 0 1.377.325 2.629.979 3.751zm1.288 13.706c-1.621-.634-2.84-1.48-3.657-2.533l1.593-1.988c.679.864 1.662 1.548 2.942 2.048s2.682.75 4.209.75c1.933 0 3.514-.596 4.74-1.785 1.224-1.19 1.838-2.718 1.838-4.581v-2.637c-.573.975-1.52 1.791-2.84 2.452-1.321.664-2.69.995-4.107.995-1.853 0-3.535-.447-5.046-1.338-1.512-.892-2.703-2.117-3.576-3.67-.87-1.556-1.308-3.278-1.308-5.17 0-1.894.438-3.611 1.308-5.152.873-1.54 2.064-2.75 3.576-3.629 1.511-.879 3.193-1.318 5.046-1.318 1.445 0 2.827.323 4.147.972 1.321.649 2.255 1.475 2.8 2.475v-3.04h2.982v19.1c0 1.755-.402 3.318-1.204 4.685-.804 1.363-1.929 2.424-3.371 3.182-1.446.755-3.079 1.136-4.904 1.136s-3.547-.318-5.168-.954z"/><path d="m146.903 150.458-8.214-19.343h3.229l6.497 15.896 6.537-15.896h3.188l-11.481 27.169h-3.189z"/><path d="m176.547 150.458c-1.458-.513-2.662-1.202-3.616-2.068l1.349-2.231c.76.758 1.763 1.379 3.002 1.864 1.24.488 2.446.733 3.616.733 1.336 0 2.418-.306 3.25-.915.829-.606 1.244-1.371 1.244-2.29 0-.73-.224-1.311-.672-1.743-.45-.432-1.01-.765-1.677-.995-.666-.23-1.6-.492-2.799-.79-1.442-.323-2.613-.654-3.514-.993-.898-.338-1.661-.871-2.287-1.603-.626-.728-.939-1.715-.939-2.96 0-1.73.666-3.122 2.002-4.177 1.334-1.054 3.089-1.582 5.27-1.582 1.389 0 2.71.223 3.962.67 1.255.447 2.262 1.076 3.026 1.886l-1.39 2.23c-.654-.702-1.539-1.262-2.656-1.682-1.117-.419-2.181-.628-3.186-.628-1.227 0-2.209.275-2.944.83-.736.553-1.102 1.303-1.102 2.251 0 .621.211 1.136.633 1.54.423.407.952.717 1.593.935.639.214 1.52.472 2.637.77 1.471.351 2.682.709 3.636 1.073.954.366 1.763.94 2.43 1.725.667.783 1.003 1.839 1.003 3.162 0 1.109-.316 2.096-.942 2.96-.626.866-1.504 1.548-2.633 2.048-1.133.5-2.433.75-3.904.75s-2.934-.258-4.392-.77z"/><path d="m209.626 138.982c-.164-1.622-.853-2.968-2.065-4.036-1.21-1.068-2.689-1.601-4.432-1.601-1.771 0-3.282.512-4.538 1.54-1.252 1.028-2.055 2.392-2.409 4.097zm-11.482 10.907c-1.553-.891-2.778-2.129-3.677-3.71-.901-1.581-1.35-3.346-1.35-5.293 0-1.864.449-3.574 1.35-5.129.899-1.554 2.116-2.784 3.656-3.69 1.537-.907 3.235-1.359 5.087-1.359 1.771 0 3.378.412 4.822 1.238 1.443.825 2.581 1.954 3.413 3.386.83 1.432 1.244 3.028 1.244 4.786 0 .46-.025.904-.082 1.336h-16.547c.109 2.109.836 3.821 2.186 5.132 1.349 1.311 3.044 1.967 5.086 1.967 1.418 0 2.702-.29 3.863-.874 1.158-.58 2.021-1.371 2.593-2.371l2.372 1.46c-.763 1.379-1.937 2.467-3.515 3.265-1.58.796-3.378 1.195-5.393 1.195-1.854 0-3.556-.445-5.108-1.339z"/><path d="m221.638 134.196c.655-1.081 1.609-1.932 2.861-2.556 1.252-.621 2.614-.932 4.086-.932 1.634 0 3.063.359 4.29 1.074 1.227.717 2.178 1.74 2.861 3.063.679 1.323 1.019 2.867 1.019 4.622v11.354h-2.981v-10.948c0-1.891-.532-3.414-1.593-4.561-1.063-1.151-2.466-1.724-4.209-1.724-1.309 0-2.54.31-3.698.931-1.157.624-2.039 1.475-2.636 2.556v13.746h-2.983v-19.708h2.983z"/><path d="m246.011 150.458c-1.458-.513-2.664-1.202-3.617-2.068l1.35-2.231c.759.758 1.763 1.379 3.002 1.864 1.238.488 2.444.733 3.616.733 1.336 0 2.416-.306 3.249-.915.83-.606 1.244-1.371 1.244-2.29 0-.73-.223-1.311-.672-1.743-.45-.432-1.01-.765-1.676-.995-.668-.23-1.601-.492-2.799-.79-1.443-.323-2.613-.654-3.514-.993-.899-.338-1.662-.871-2.288-1.603-.626-.728-.939-1.715-.939-2.96 0-1.73.666-3.122 2.002-4.177 1.334-1.054 3.09-1.582 5.271-1.582 1.39 0 2.71.223 3.962.67 1.254.447 2.262 1.076 3.025 1.886l-1.389 2.23c-.655-.702-1.54-1.262-2.657-1.682-1.116-.419-2.181-.628-3.185-.628-1.227 0-2.21.275-2.945.83-.735.553-1.101 1.303-1.101 2.251 0 .621.21 1.136.633 1.54.422.407.951.717 1.592.935.639.214 1.519.472 2.638.77 1.469.351 2.681.709 3.635 1.073.955.366 1.764.94 2.43 1.725.668.783 1.004 1.839 1.004 3.162 0 1.109-.317 2.096-.943 2.96-.626.866-1.504 1.548-2.634 2.048-1.132.5-2.431.75-3.903.75-1.471 0-2.933-.258-4.391-.77z"/><path d="m279.089 138.982c-.164-1.622-.853-2.968-2.065-4.036-1.21-1.068-2.689-1.601-4.431-1.601-1.772 0-3.283.512-4.539 1.54-1.252 1.028-2.055 2.392-2.408 4.097zm-11.481 10.907c-1.554-.891-2.779-2.129-3.678-3.71-.901-1.581-1.349-3.346-1.349-5.293 0-1.864.448-3.574 1.349-5.129.899-1.554 2.116-2.784 3.657-3.69 1.536-.907 3.234-1.359 5.086-1.359 1.771 0 3.378.412 4.822 1.238 1.443.825 2.581 1.954 3.413 3.386.83 1.432 1.244 3.028 1.244 4.786 0 .46-.025.904-.082 1.336h-16.547c.109 2.109.836 3.821 2.186 5.132 1.349 1.311 3.044 1.967 5.086 1.967 1.418 0 2.702-.29 3.863-.874 1.158-.58 2.021-1.371 2.593-2.371l2.373 1.46c-.764 1.379-1.938 2.467-3.516 3.265-1.58.796-3.378 1.195-5.393 1.195-1.853 0-3.556-.445-5.107-1.339z"/><path d="m291.101 150.822h-2.983v-19.709h2.983zm-.191-22.335h-2.952v-3.38h2.952z"/></g></svg>