<svg xmlns="http://www.w3.org/2000/svg" version="1.1" xmlns:xlink="http://www.w3.org/1999/xlink" xmlns:svgjs="http://svgjs.dev/svgjs" width="1000" height="1000"><g clip-path="url(#SvgjsClipPath1126)"><rect width="1000" height="1000" fill="#ffffff"></rect><g transform="matrix(6.956521739130435,0,0,6.956521739130435,100,277.3913043478261)"><svg xmlns="http://www.w3.org/2000/svg" version="1.1" xmlns:xlink="http://www.w3.org/1999/xlink" xmlns:svgjs="http://svgjs.dev/svgjs" width="115" height="64"><svg fill="none" height="64" viewBox="0 0 115 64" width="115" xmlns="http://www.w3.org/2000/svg" xmlns:xlink="http://www.w3.org/1999/xlink"><clipPath id="a"><path d="m0 0h115v64h-115z"></path></clipPath><g clip-path="url(#a)" fill="#242424"><path d="m12.5362 37.566v-29.49017c0-.06927-.0091-.09841-.0091-.09841-.033-.02507-.0952-.07733-.1503-.10541-.1824-.07627-.447-.16362-.7296-.2359-.2676-.06731-.5442-.10944-.8168-.12752-.2996-.01807-.5061-.0291-.6183-.0291h-2.01641v30.45591h2.60271c.2315 0 .475-.0321.7255-.0954.0762-.018.1534-.028.2315-.028.2396 0 .447-.0372.6154-.1094.022-.0121.0842-.0563.1353-.1075.01-.01.02-.0201.031-.0301zm8.2288-14.8942c.02 4.9514.0311 9.9238.0311 14.9143 0 1.4276-.3467 2.6584-1.0303 3.6613-.6564.9617-1.5193 1.7559-2.5635 2.3592-1.0062.5833-2.1487 1.015-3.3934 1.282-1.2137.26-2.4233.3916-3.5968.3916h-10.21222207v-45.146411h10.21222207c1.1745 0 2.3741.132516 3.5688.393536 1.2206.266037 2.3511.697725 3.3602 1.281005 1.0443.60436 1.9062 1.39846 2.5626 2.35922.6835 1.00291 1.0302 2.21364 1.0302 3.59905 0 4.9895.009 9.9569.0311 14.9052z"></path><path d="m44.7012.160645h-7.3319v45.120255h7.3319z"></path><path d="m37.3695.1604h-7.7007l-9.0587 45.1202h7.6997z"></path><path d="m114.883.160645h-7.332v45.120255h7.332z"></path><path d="m107.551.1604h-7.7009l-9.0587 45.1202h7.6997z"></path><path d="m58.6802 15.0227v-6.92506c0-.12145-.013-.12853-.0691-.15963-.0221-.01204-.0421-.02507-.0621-.03915-.1554-.10338-.3488-.1847-.5723-.24094-.2505-.07228-.47-.11241-.6765-.12849-.2345-.01807-.4269-.02811-.5722-.02811h-2.3852v12.87828h2.3852c.4459 0 .7075-.1395.908-.4849.3287-.5682.5682-1.1093.7115-1.6083.1413-.6043.2365-1.2388.2736-1.8392.0401-.6565.0602-1.1223.0602-1.4245zm8.257 0c0 1.4647-.1644 2.9294-.487 4.353-.3127 1.3824-.8409 2.6634-1.5715 3.8149 1.3139 1.2468 1.9973 2.8752 1.9973 4.8158 0 2.7176.0101 5.4362.0311 8.1549.023 3.0409.0331 6.0797.0301 9.1196h-8.254v-16.9663c0-.0462-.006-.0662-.006-.0662-.0521-.0643-.0921-.1024-.1142-.1195-.2055-.1154-.4129-.2028-.6153-.262-.1985-.0563-.3919-.0844-.5693-.0844h-3.0336v17.4984h-8.1928v-45.120255h10.577c1.2187 0 2.4112.132518 3.5477.395545 1.1635.269052 2.2359.70375 3.1859 1.29204.9862.6124 1.7949 1.42257 2.4062 2.41042.6204 1.00492.9582 2.20261 1.0053 3.55889.0812 1.18461.1142 2.41846.0921 3.63516-.021 1.1907-.03 2.3803-.03 3.57z"></path><path d="m96.5523.1604s-.1789.90252-.2526 1.18764l-6.8819 26.56376v17.3688h-8.1921v-17.3678l-6.9442-26.56275c-.0731-.28411-.2505-1.18965-.2505-1.18965h1.1674 6.6053 1.1305l2.4608 13.9966 2.2534-13.9966h1.0674 6.667"></path><path d="m72.1259 8.03034h-3.6379v-8.03034h3.6379z"></path><path d="m1.5082 59.8094c-.574247-.2038-1.049279-.4779-1.4240936-.8222l.5311546-.8865c.299653.3012.694509.5482 1.182569.7409.48806.1938.9631.2912 1.4241.2912.52614 0 .95207-.1215 1.27978-.3635.32671-.2409.49007-.5451.49007-.9105 0-.2901-.0882-.521-.26458-.6927-.17738-.1717-.39787-.3042-.66044-.3955-.26257-.0914-.63037-.1958-1.1024-.3143-.56823-.1285-1.02923-.26-1.384-.3946-.35377-.1344-.654427-.3463-.900959-.6374-.246536-.2891-.369804-.6817-.369804-1.1766 0-.6877.26257-1.2409.788713-1.6605.52514-.4186 1.21664-.6285 2.07551-.6285.54719 0 1.06732.0884 1.56039.2661.49408.1777.89094.4276 1.19159.7499l-.54719.8865c-.25755-.2791-.60631-.502-1.04627-.6686-.43996-.1667-.85886-.25-1.25473-.25-.48305 0-.86989.1094-1.15952.3302-.28963.2199-.43394.5181-.43394.8945 0 .247.08318.4518.24954.6125.16636.1616.37482.285.62737.3714.25154.0853.5983.1877 1.03825.3062.57926.1396 1.0563.2821 1.43211.4267.37582.1456.69451.3734.95709.6857.26257.3111.39485.7308.39485 1.2568 0 .4408-.12426.8333-.3708 1.1767-.24653.3443-.59229.6153-1.03725.8141-.44598.1988-.95809.2982-1.53735.2982s-1.15551-.1024-1.72976-.3062z"></path><path d="m9.69986 59.2854c-.49909-.4999-.74863-1.1896-.74863-2.0711v-3.9986h-1.56042v-1.0963h1.56042v-2.1594h1.15847v2.1594h2.2048v1.0963h-2.2048v3.9504c0 .5582.1584.996.4751 1.3132.3166.3172.7215.4758 1.2156.4758.1814 0 .3538-.0271.5141-.0803l.0812 1.0311c-.2255.0863-.473.1295-.7406.1295-.8048 0-1.4562-.25-1.95524-.75z"></path><path d="m14.5834 52.1198h1.1746v1.2419c.2145-.4197.5232-.758.925-1.016.4029-.2579.8078-.3874 1.2157-.3874.2996 0 .5732.038.8208.1133l-.0642 1.1124c-.2365-.0963-.5151-.1456-.8368-.1456-.3548 0-.7246.1376-1.1104.4117-.3869.274-.7036.6424-.9501 1.1043v5.4001h-1.1746z"></path><path d="m21.2301 57.5446c.2575.4568.6113.8141 1.0622 1.0722.45.258.9491.3865 1.4963.3865.5151 0 1.0082-.1345 1.4802-.4026.472-.2691.8268-.6074 1.0624-1.016v-3.079c-.2255-.4297-.5743-.7791-1.0463-1.0481-.472-.268-.9711-.4026-1.4963-.4026-.5472 0-1.0463.1285-1.4963.3866-.4509.2579-.8047.6133-1.0622 1.0641-.2576.4518-.3859.9568-.3859 1.5149 0 .5592.1283 1.0672.3859 1.524zm6.2756 2.4104h-1.1745v-1.2258c-.2255.3975-.5983.7288-1.1185.9909-.5201.264-1.0593.3956-1.6175.3956-.7296 0-1.392-.1798-1.9873-.5402-.5953-.3594-1.0643-.8513-1.4081-1.4747-.3428-.6235-.5151-1.3162-.5151-2.0802 0-.7519.1723-1.4396.5151-2.063.3438-.6225.8128-1.1123 1.4081-1.4668.5953-.3544 1.2577-.5321 1.9873-.5321.5692 0 1.1134.1316 1.6335.3956.5202.263.8879.5934 1.1025.9909v-1.2248h1.1745z"></path><path d="m31.7299 59.2854c-.4991-.4999-.7487-1.1896-.7487-2.0711v-3.9986h-1.5604v-1.0963h1.5604v-2.1594h1.1586v2.1594h2.2048v1.0963h-2.2048v3.9504c0 .5582.1583.996.475 1.3132s.7216.4758 1.2156.4758c.1814 0 .3538-.0271.5142-.0803l.0811 1.0311c-.2254.0863-.473.1295-.7405.1295-.8048 0-1.4563-.25-1.9553-.75z"></path><path d="m42.1337 55.2473c-.0641-.6445-.3358-1.1795-.8128-1.6042-.477-.4246-1.0593-.6365-1.7458-.6365-.6975 0-1.2928.2038-1.7868.6124-.4931.4086-.8099.9507-.9491 1.6283zm-4.5219 4.336c-.6113-.3544-1.0943-.8463-1.4481-1.4748-.3548-.6284-.5311-1.3301-.5311-2.1042 0-.7408.1763-1.4205.5311-2.0389.3538-.6174.8338-1.1064 1.4401-1.4667.6054-.3605 1.2738-.5402 2.0034-.5402.6975 0 1.3299.1637 1.8991.492.5682.3282 1.0162.777 1.3439 1.3462.3267.5692.4901 1.2037.4901 1.9024 0 .1827-.01.3595-.032.5311h-6.5172c.043.8383.3297 1.5189.8608 2.04.5312.521 1.1986.7821 2.0034.7821.5582 0 1.0643-.1155 1.5213-.3475.456-.2308.7957-.5451 1.0212-.9426l.934.5803c-.3006.5481-.7626.9808-1.3839 1.298-.6224.3163-1.331.4749-2.1247.4749-.7296 0-1.4-.1767-2.0114-.5321z"></path><path d="m46.5427 57.464c.2576.4457.6113.7981 1.0623 1.0562.45.258.9491.3864 1.4963.3864.5151 0 1.0082-.1284 1.4802-.3864.472-.2581.8268-.5913 1.0623-1v-3.0469c-.2254-.4186-.5742-.7629-1.0462-1.032-.4721-.268-.9711-.4026-1.4963-.4026-.5472 0-1.0463.1265-1.4963.3785-.451.253-.8047.6024-1.0623 1.0481-.2576.4458-.3858.9487-.3858 1.5079 0 .5471.1282 1.0451.3858 1.4908zm.5072 5.4483c-.6385-.252-1.1185-.5883-1.4402-1.0069l.6273-.7901c.2676.3434.6545.6154 1.1586.8142.5041.1987 1.0563.2981 1.6576.2981.7616 0 1.384-.2369 1.867-.7098.4821-.4728.7236-1.0801.7236-1.821v-1.0481c-.2254.3874-.5983.7117-1.1184.9747-.5201.2641-1.0593.3956-1.6175.3956-.7296 0-1.392-.1777-1.9873-.5321s-1.0643-.8412-1.4081-1.4586c-.3428-.6185-.5151-1.3032-.5151-2.0551 0-.753.1723-1.4356.5151-2.048.3438-.6124.8128-1.0933 1.4081-1.4427.5953-.3493 1.2577-.524 1.9873-.524.5692 0 1.1134.1285 1.6335.3866.5202.2579.8879.5862 1.1024.9837v-1.2086h1.1746v7.5926c0 .6978-.1583 1.3192-.474 1.8623-.3168.5421-.7597.9637-1.3279 1.2649-.5693.3002-1.2127.4518-1.9312.4518-.7186 0-1.3971-.1265-2.0354-.3795z"></path><path d="m57.8557 59.8092-3.235-7.6891h1.2717l2.5586 6.3187 2.5746-6.3187h1.2557l-4.5218 10.8002h-1.2558z"></path><path d="m69.5304 59.8094c-.5742-.2038-1.0482-.4779-1.424-.8222l.5311-.8865c.2997.3012.6945.5482 1.1826.7409.488.1938.9631.2912 1.4241.2912.5261 0 .952-.1215 1.2798-.3635.3266-.2409.49-.5451.49-.9105 0-.2901-.0882-.521-.2645-.6927-.1774-.1717-.398-.3042-.6605-.3955-.2626-.0914-.6303-.1958-1.1024-.3143-.5682-.1285-1.0292-.26-1.384-.3946-.3537-.1344-.6544-.3463-.9009-.6374-.2466-.2891-.3698-.6817-.3698-1.1766 0-.6877.2625-1.2409.7887-1.6605.5251-.4186 1.2166-.6285 2.0754-.6285.5472 0 1.0674.0884 1.5604.2661.4942.1777.891.4276 1.1916.7499l-.5472.8865c-.2575-.2791-.6063-.502-1.0462-.6686-.44-.1667-.8589-.25-1.2548-.25-.483 0-.8698.1094-1.1594.3302-.2897.2199-.434.5181-.434.8945 0 .247.0832.4518.2495.6125.1664.1616.3749.285.6274.3714.2516.0853.5983.1877 1.0382.3062.5793.1396 1.0563.2821 1.4321.4267.3758.1456.6945.3734.9572.6857.2625.3111.3948.7308.3948 1.2568 0 .4408-.1243.8333-.3708 1.1767-.2465.3443-.5923.6153-1.0372.8141-.4461.1988-.9582.2982-1.5374.2982s-1.1555-.1024-1.7298-.3062z"></path><path d="m82.5581 55.2473c-.0646-.6445-.3359-1.1795-.8132-1.6042-.4766-.4246-1.0591-.6365-1.7453-.6365-.6975 0-1.2928.2038-1.7874.6124-.4931.4086-.8095.9507-.9486 1.6283zm-4.5218 4.336c-.6118-.3544-1.0944-.8463-1.4484-1.4748-.3548-.6284-.5314-1.3301-.5314-2.1042 0-.7408.1766-1.4205.5314-2.0389.354-.6174.8336-1.1064 1.4401-1.4667.6051-.3605 1.2741-.5402 2.0032-.5402.6975 0 1.3303.1637 1.8993.492.5683.3282 1.0162.777 1.344 1.3462.3269.5692.49 1.2037.49 1.9024 0 .1827-.0097.3595-.0323.5311h-6.5167c.0429.8383.3293 1.5189.8607 2.04.5314.521 1.1988.7821 2.0031.7821.5584 0 1.0643-.1155 1.5213-.3475.4562-.2308.7959-.5451 1.0214-.9426l.9343.5803c-.3006.5481-.7629.9808-1.3845 1.298-.6223.3163-1.3304.4749-2.1241.4749-.7298 0-1.4003-.1767-2.0114-.5321z"></path><path d="m87.2889 53.3451c.2578-.4297.6336-.768 1.1267-1.0159.493-.247 1.0297-.3705 1.6092-.3705.6434 0 1.2064.1426 1.6897.4267.4833.2851.8576.6917 1.1267 1.2178.2676.526.4014 1.1394.4014 1.8371v4.5136h-1.1741v-4.352c0-.7519-.2097-1.3572-.6276-1.8131-.4187-.4577-.9711-.6856-1.6574-.6856-.5156 0-1.0004.1235-1.4566.3705-.4555.2479-.8028.5862-1.038 1.0159v5.4643h-1.1748v-7.8346h1.1748z"></path><path d="m96.8878 59.8094c-.5743-.2038-1.0493-.4779-1.4244-.8222l.5314-.8865c.2992.3012.6945.5482 1.1824.7409.4878.1938.9628.2912 1.4243.2912.5262 0 .9516-.1215 1.2793-.3635.3272-.2409.4902-.5451.4902-.9105 0-.2901-.088-.521-.265-.6927-.1771-.1717-.3973-.3042-.6596-.3955-.2631-.0914-.6307-.1958-1.1027-.3143-.5682-.1285-1.029-.26-1.3838-.3946-.354-.1344-.6546-.3463-.9012-.6374-.2465-.2891-.3698-.6817-.3698-1.1766 0-.6877.2623-1.2409.7885-1.6605.5254-.4186 1.2169-.6285 2.076-.6285.5472 0 1.0673.0884 1.5606.2661.494.1777.89.4276 1.191.7499l-.547.8865c-.258-.2791-.607-.502-1.0463-.6686-.4397-.1667-.8591-.25-1.2545-.25-.4833 0-.8704.1094-1.1598.3302-.2894.2199-.4337.5181-.4337.8945 0 .247.0827.4518.2496.6125.1661.1616.3743.285.6268.3714.2518.0853.5983.1877 1.0388.3062.5788.1396 1.056.2821 1.4321.4267.376.1456.694.3734.957.6857.263.3111.395.7308.395 1.2568 0 .4408-.125.8333-.371 1.1767-.247.3443-.593.6153-1.038.8141-.4453.1988-.9572.2982-1.5367.2982s-1.1553-.1024-1.7295-.3062z"></path><path d="m109.915 55.2473c-.064-.6445-.336-1.1795-.813-1.6042-.477-.4246-1.059-.6365-1.745-.6365-.698 0-1.293.2038-1.788.6124-.493.4086-.809.9507-.948 1.6283zm-4.522 4.336c-.611-.3544-1.094-.8463-1.448-1.4748-.355-.6284-.531-1.3301-.531-2.1042 0-.7408.176-1.4205.531-2.0389.354-.6174.834-1.1064 1.44-1.4667.605-.3605 1.274-.5402 2.003-.5402.698 0 1.331.1637 1.9.492.568.3282 1.016.777 1.344 1.3462.326.5692.49 1.2037.49 1.9024 0 .1827-.01.3595-.033.5311h-6.516c.042.8383.329 1.5189.86 2.04.532.521 1.199.7821 2.003.7821.559 0 1.065-.1155 1.522-.3475.456-.2308.796-.5451 1.021-.9426l.934.5803c-.3.5481-.763.9808-1.384 1.298-.622.3163-1.331.4749-2.124.4749-.73 0-1.401-.1767-2.012-.5321z"></path><path d="m114.646 59.9541h-1.175v-7.8346h1.175zm-.075-8.8787h-1.163v-1.3432h1.163z"></path></g></svg></svg></g></g><defs><clipPath id="SvgjsClipPath1126"><rect width="1000" height="1000" x="0" y="0" rx="200" ry="200"></rect></clipPath></defs></svg>